<svg width="550" height="500" viewBox="0 0 550 500" fill="none" xmlns="http://www.w3.org/2000/svg">
<path d="M496.839 132.405C516.282 184.287 558.043 224.565 547.014 252.114C536.043 279.577 472.226 294.396 437.759 339.464C403.378 384.589 398.376 460.104 368.209 486.944C337.957 513.727 282.512 491.692 251.187 452.594C219.804 413.582 212.684 357.478 168.667 322.601C124.621 287.583 43.7071 273.933 14.3671 237.768C-15.1152 201.631 6.89117 142.921 56.497 123.532C106.16 104.057 183.479 123.817 230.212 120.524C277.001 117.145 293.004 90.8265 329.977 59.16C366.95 27.4935 424.693 -9.40726 452.312 3.88563C479.931 17.1785 477.255 80.5511 496.839 132.405Z" stroke="white"/>
</svg>
