<svg width="923" height="838" viewBox="0 0 923 838" fill="none" xmlns="http://www.w3.org/2000/svg">
<path d="M834.279 222.02C867.029 309.187 937.274 376.895 918.777 423.149C900.376 469.259 793.138 494.059 735.273 569.704C677.552 645.445 669.251 772.27 618.587 817.307C567.78 862.248 474.561 825.162 421.857 759.451C369.057 693.883 357.011 599.643 282.981 541.004C208.904 482.126 72.8913 459.087 23.5282 398.305C-26.074 337.569 10.83 238.994 94.1761 206.498C177.618 173.859 307.598 207.156 386.137 201.69C464.772 196.082 491.631 151.901 553.727 98.7669C615.823 45.6332 712.822 -16.2624 759.26 6.10254C805.698 28.4675 801.289 134.901 834.279 222.02Z" stroke="white"/>
</svg>
