<svg width="1256" height="1141" viewBox="0 0 1256 1141" fill="none" xmlns="http://www.w3.org/2000/svg">
<path d="M1135.94 301.366C1180.5 420.119 1276.14 512.337 1250.92 575.373C1225.83 638.214 1079.74 672.069 1000.88 775.177C922.214 878.415 910.833 1051.23 841.796 1112.63C772.564 1173.89 645.612 1123.42 573.862 1033.91C501.981 944.597 485.628 816.194 384.826 736.336C283.96 656.153 98.7089 624.84 31.5066 542.047C-36.0214 459.318 14.3038 324.978 127.85 280.65C241.526 236.127 418.553 281.422 525.535 273.928C632.648 266.239 669.259 206.022 753.872 133.586C838.486 61.15 970.644 -23.2458 1033.89 7.20128C1097.13 37.6484 1091.06 182.677 1135.94 301.366Z" stroke="white"/>
</svg>
