<svg width="1264" height="1149" viewBox="0 0 1264 1149" fill="none" xmlns="http://www.w3.org/2000/svg">
<g filter="url(#filter0_d_75_12)">
<path d="M873.839 376.405C893.282 428.287 935.043 468.565 924.014 496.114C913.043 523.577 849.226 538.396 814.759 583.464C780.378 628.589 775.376 704.104 745.209 730.944C714.957 757.727 659.512 735.692 628.187 696.594C596.804 657.582 589.684 601.478 545.667 566.602C501.621 531.583 420.707 517.933 391.367 481.768C361.885 445.631 383.891 386.921 433.497 367.532C483.16 348.057 560.479 367.817 607.212 364.524C654.001 361.145 670.004 334.827 706.977 303.16C743.95 271.494 801.693 234.593 829.312 247.886C856.931 261.179 854.254 324.551 873.839 376.405Z" stroke="white" shape-rendering="crispEdges"/>
<path d="M1014.28 337.02C1047.03 424.187 1117.27 491.895 1098.78 538.149C1080.38 584.259 973.138 609.059 915.273 684.704C857.552 760.445 849.251 887.27 798.587 932.307C747.78 977.248 654.561 940.162 601.857 874.451C549.057 808.883 537.011 714.643 462.981 656.004C388.904 597.126 252.891 574.087 203.528 513.305C153.926 452.569 190.83 353.994 274.176 321.498C357.618 288.859 487.598 322.156 566.137 316.69C644.771 311.082 671.631 266.901 733.727 213.767C795.823 160.633 892.822 98.7376 939.26 121.103C985.698 143.468 981.289 249.901 1014.28 337.02Z" stroke="white" shape-rendering="crispEdges"/>
<path d="M1139.94 301.366C1184.5 420.119 1280.14 512.337 1254.92 575.373C1229.83 638.214 1083.74 672.069 1004.88 775.177C926.214 878.415 914.833 1051.23 845.796 1112.63C776.564 1173.89 649.612 1123.42 577.862 1033.91C505.981 944.597 489.628 816.194 388.826 736.336C287.96 656.153 102.709 624.84 35.5066 542.047C-32.0214 459.318 18.3038 324.978 131.85 280.65C245.526 236.127 422.553 281.422 529.535 273.928C636.648 266.239 673.259 206.022 757.872 133.586C842.486 61.15 974.644 -23.2458 1037.89 7.20129C1101.13 37.6484 1095.06 182.677 1139.94 301.366Z" stroke="white" shape-rendering="crispEdges"/>
</g>
<defs>
<filter id="filter0_d_75_12" x="0.554688" y="0.31369" width="1263.03" height="1147.75" filterUnits="userSpaceOnUse" color-interpolation-filters="sRGB">
<feFlood flood-opacity="0" result="BackgroundImageFix"/>
<feColorMatrix in="SourceAlpha" type="matrix" values="0 0 0 0 0 0 0 0 0 0 0 0 0 0 0 0 0 0 127 0" result="hardAlpha"/>
<feOffset dy="4"/>
<feGaussianBlur stdDeviation="2"/>
<feComposite in2="hardAlpha" operator="out"/>
<feColorMatrix type="matrix" values="0 0 0 0 0 0 0 0 0 0 0 0 0 0 0 0 0 0 0.25 0"/>
<feBlend mode="normal" in2="BackgroundImageFix" result="effect1_dropShadow_75_12"/>
<feBlend mode="normal" in="SourceGraphic" in2="effect1_dropShadow_75_12" result="shape"/>
</filter>
</defs>
</svg>
