<svg width="41" height="61" viewBox="0 0 41 61" fill="none" xmlns="http://www.w3.org/2000/svg">
<path fill-rule="evenodd" clip-rule="evenodd" d="M20.3333 30.4999C20.3333 24.885 24.8851 20.3333 30.5 20.3333C36.1149 20.3333 40.6666 24.885 40.6666 30.4999C40.6666 36.1148 36.1149 40.6666 30.5 40.6666C24.8851 40.6666 20.3333 36.1148 20.3333 30.4999Z" fill="#1ABCFE"/>
<path fill-rule="evenodd" clip-rule="evenodd" d="M0 50.8334C0 45.2185 4.55177 40.6667 10.1667 40.6667H20.3333V50.8334C20.3333 56.4483 15.7816 61.0001 10.1667 61.0001C4.55177 61.0001 0 56.4483 0 50.8334Z" fill="#0ACF83"/>
<path fill-rule="evenodd" clip-rule="evenodd" d="M20.3333 0V20.3333H30.5C36.1149 20.3333 40.6666 15.7816 40.6666 10.1667C40.6666 4.55177 36.1149 0 30.5 0H20.3333Z" fill="#FF7262"/>
<path fill-rule="evenodd" clip-rule="evenodd" d="M0 10.1667C0 15.7816 4.55177 20.3333 10.1667 20.3333H20.3333V0H10.1667C4.55177 0 0 4.55177 0 10.1667Z" fill="#F24E1E"/>
<path fill-rule="evenodd" clip-rule="evenodd" d="M0 30.4999C0 36.1148 4.55177 40.6666 10.1667 40.6666H20.3333V20.3333H10.1667C4.55177 20.3333 0 24.885 0 30.4999Z" fill="#A259FF"/>
</svg>
