<svg width="67" height="67" viewBox="0 0 67 67" fill="none" xmlns="http://www.w3.org/2000/svg">
<path d="M11.1667 52.3438L18.7251 3.97464C18.7702 3.68539 18.905 3.41763 19.1106 3.20923C19.3162 3.00083 19.5821 2.86233 19.8707 2.81333C20.1593 2.76433 20.456 2.80731 20.7188 2.93618C20.9816 3.06505 21.1973 3.2733 21.3353 3.53146L29.152 18.1109L32.2682 12.1787C32.3866 11.9536 32.5642 11.7651 32.782 11.6337C32.9997 11.5022 33.2492 11.4327 33.5035 11.4327C33.7578 11.4327 34.0073 11.5022 34.225 11.6337C34.4427 11.7651 34.6204 11.9536 34.7388 12.1787L55.8333 52.3438H11.1667Z" fill="#FFA000"/>
<path d="M37.2792 33.5035L29.1485 18.1075L11.1667 52.3438L37.2792 33.5035Z" fill="#F57C00"/>
<path d="M55.8333 52.3438L50.0441 16.5197C50.0012 16.2673 49.8897 16.0316 49.7218 15.8383C49.554 15.645 49.3362 15.5016 49.0923 15.4238C48.8484 15.346 48.5878 15.3368 48.339 15.3971C48.0902 15.4574 47.8628 15.585 47.6817 15.766L11.1667 52.3438L31.3713 63.6744C31.9953 64.0228 32.6981 64.2057 33.4128 64.2057C34.1274 64.2057 34.8302 64.0228 35.4542 63.6744L55.8333 52.3438Z" fill="#FFCA28"/>
<path d="M50.0441 16.5197C50.0012 16.2673 49.8897 16.0316 49.7218 15.8383C49.554 15.645 49.3362 15.5016 49.0923 15.4238C48.8484 15.346 48.5878 15.3368 48.339 15.3971C48.0902 15.4574 47.8628 15.585 47.6817 15.766L40.4373 23.0315L34.7353 12.1754C34.6169 11.9503 34.4393 11.7618 34.2216 11.6304C34.0038 11.4989 33.7544 11.4294 33.5 11.4294C33.2457 11.4294 32.9962 11.4989 32.7785 11.6304C32.5608 11.7618 32.3831 11.9503 32.2647 12.1754L29.1485 18.1075L21.3318 3.53168C21.1936 3.27346 20.9777 3.06527 20.7145 2.93658C20.4514 2.80789 20.1545 2.76523 19.8658 2.81463C19.5771 2.86404 19.3113 3.003 19.1059 3.21185C18.9006 3.4207 18.7661 3.68885 18.7216 3.97834L11.1667 52.3438L11.1388 52.344L11.1632 52.3719L11.3621 52.4696L47.6712 16.1221C47.8522 15.9402 48.0799 15.8117 48.3292 15.7508C48.5785 15.6899 48.8397 15.6989 49.0843 15.7768C49.3288 15.8547 49.5471 15.9985 49.7152 16.1924C49.8833 16.3863 49.9947 16.6228 50.0372 16.8758L55.7775 52.3789L55.8333 52.3438L50.0441 16.5197ZM11.233 52.2777L18.7251 4.32381C18.7696 4.03432 18.9041 3.76617 19.1094 3.55732C19.3148 3.34847 19.5806 3.20951 19.8693 3.1601C20.158 3.1107 20.4549 3.15336 20.718 3.28205C20.9811 3.41074 21.1971 3.61893 21.3353 3.87715L29.152 18.4566L32.2682 12.5243C32.3866 12.2993 32.5643 12.1108 32.782 11.9793C32.9997 11.8479 33.2492 11.7784 33.5035 11.7784C33.7578 11.7784 34.0073 11.8479 34.225 11.9793C34.4428 12.1108 34.6204 12.2993 34.7388 12.5243L40.3222 23.1431L11.233 52.2777Z" fill="white" fill-opacity="0.2"/>
<path d="M35.4542 63.3324C34.8302 63.6808 34.1274 63.8637 33.4128 63.8637C32.6981 63.8637 31.9953 63.6808 31.3713 63.3324L11.2155 52.0262L11.1667 52.3438L31.3713 63.6709C31.9953 64.0193 32.6981 64.2022 33.4128 64.2022C34.1274 64.2022 34.8302 64.0193 35.4542 63.6709L55.8333 52.3438L55.781 52.0227L35.4542 63.3324Z" fill="#A52714"/>
<path d="M50.0441 16.5197C50.0012 16.2673 49.8897 16.0316 49.7218 15.8383C49.554 15.645 49.3362 15.5016 49.0923 15.4238C48.8484 15.346 48.5878 15.3368 48.339 15.3971C48.0902 15.4574 47.8628 15.585 47.6817 15.766L40.4373 23.0315L34.7353 12.1754C34.6169 11.9503 34.4393 11.7618 34.2216 11.6304C34.0038 11.4989 33.7544 11.4294 33.5 11.4294C33.2457 11.4294 32.9962 11.4989 32.7785 11.6304C32.5608 11.7618 32.3831 11.9503 32.2647 12.1754L29.1485 18.1075L21.3318 3.53168C21.1936 3.27346 20.9777 3.06527 20.7145 2.93658C20.4514 2.80789 20.1545 2.76523 19.8658 2.81463C19.5771 2.86404 19.3113 3.003 19.1059 3.21185C18.9006 3.4207 18.7661 3.68885 18.7216 3.97834L11.1667 52.3438L31.3713 63.6709C31.9953 64.0193 32.6981 64.2022 33.4128 64.2022C34.1274 64.2022 34.8302 64.0193 35.4542 63.6709L55.8333 52.3438L50.0441 16.5197Z" fill="url(#paint0_linear_19_314)"/>
<defs>
<linearGradient id="paint0_linear_19_314" x1="9.48751" y1="14.0564" x2="56.1387" y2="60.7076" gradientUnits="userSpaceOnUse">
<stop stop-color="white" stop-opacity="0.1"/>
<stop offset="1" stop-color="white" stop-opacity="0"/>
</linearGradient>
</defs>
</svg>
