<svg width="64" height="64" viewBox="0 0 64 64" fill="none" xmlns="http://www.w3.org/2000/svg">
<path d="M3.18642 47.4214L5.82626 48.7779L35.2352 3.44518L32.5953 2.08869L3.18642 47.4214Z" fill="#E535AB"/>
<path d="M61.3997 43.7998H2.5819V46.5128H61.3997V43.7998Z" fill="#E535AB"/>
<path d="M3.74575 45.3239L33.1657 60.4414L34.6898 58.092L5.26991 42.9745L3.74575 45.3239Z" fill="#E535AB"/>
<path d="M29.3028 5.92387L58.7228 21.0413L60.2469 18.6919L30.827 3.57444L29.3028 5.92387Z" fill="#E535AB"/>
<path d="M3.75391 18.6816L5.27806 21.031L34.698 5.91354L33.1738 3.56411L3.75391 18.6816Z" fill="#E535AB"/>
<path d="M28.7714 3.44567L58.1803 48.7784L60.8202 47.4219L31.4113 2.08918L28.7714 3.44567Z" fill="#E535AB"/>
<path d="M7.96236 16.8825H4.91405V47.1175H7.96236V16.8825Z" fill="#E535AB"/>
<path d="M59.086 16.8825H56.0376V47.1175H59.086V16.8825Z" fill="#E535AB"/>
<path d="M31.3154 57.2408L32.6467 59.293L58.2341 46.1449L56.9028 44.0927L31.3154 57.2408Z" fill="#E535AB"/>
<path d="M63.1259 48C61.363 50.7293 57.4332 51.6609 54.3666 50.0919C51.2999 48.523 50.2532 45.0255 52.0161 42.2962C53.7789 39.5669 57.7087 38.6353 60.7754 40.2043C63.8604 41.7896 64.9071 45.2707 63.1259 48Z" fill="#E535AB"/>
<path d="M11.9656 21.7038C10.2027 24.4331 6.27294 25.3647 3.20625 23.7957C0.139574 22.2268 -0.907138 18.7293 0.855745 16C2.61863 13.2707 6.54839 12.3391 9.61507 13.9081C12.6817 15.4934 13.7285 18.9745 11.9656 21.7038Z" fill="#E535AB"/>
<path d="M0.874108 48C-0.888774 45.2707 0.157937 41.7896 3.22462 40.2043C6.2913 38.6353 10.2027 39.5669 11.9839 42.2962C13.7468 45.0255 12.7001 48.5066 9.63343 50.0919C6.54839 51.6609 2.63699 50.7293 0.874108 48Z" fill="#E535AB"/>
<path d="M52.0344 21.7038C50.2715 18.9745 51.3183 15.4934 54.3849 13.9081C57.4516 12.3391 61.363 13.2707 63.1443 16C64.9071 18.7293 63.8604 22.2104 60.7937 23.7957C57.7271 25.3647 53.7973 24.4331 52.0344 21.7038Z" fill="#E535AB"/>
<path d="M32 64C28.4559 64 25.5912 61.4505 25.5912 58.2962C25.5912 55.142 28.4559 52.5924 32 52.5924C35.5441 52.5924 38.4088 55.142 38.4088 58.2962C38.4088 61.4341 35.5441 64 32 64Z" fill="#E535AB"/>
<path d="M32 11.4076C28.4559 11.4076 25.5912 8.85802 25.5912 5.70378C25.5912 2.54954 28.4559 0 32 0C35.5441 0 38.4088 2.54954 38.4088 5.70378C38.4088 8.85802 35.5441 11.4076 32 11.4076Z" fill="#E535AB"/>
</svg>
