<svg width="70" height="70" viewBox="0 0 70 70" fill="none" xmlns="http://www.w3.org/2000/svg">
<rect x="4.375" y="4.375" width="61.25" height="61.25" fill="#FFCA28"/>
<path d="M41.5625 55.3168L46.0721 52.3328C46.4255 53.4431 48.6635 56.0801 51.4904 56.0801C54.3173 56.0801 55.6298 54.5361 55.6298 53.5125C55.6298 50.723 52.7432 49.7395 51.3567 49.2671C51.1307 49.1901 50.9446 49.1267 50.8173 49.0712C50.7521 49.0428 50.6533 49.0051 50.5266 48.9567C48.9846 48.3675 43.2957 46.194 43.2957 39.8938C43.2957 32.9543 49.9928 32.1562 51.5072 32.1562C52.498 32.1562 57.262 32.2777 59.6346 36.7363L55.2596 39.7897C54.3005 37.8466 52.7069 37.2047 51.726 37.2047C49.3029 37.2047 48.7981 38.9811 48.7981 39.7897C48.7981 42.0586 51.4307 43.0755 53.6535 43.9342C54.2351 44.1589 54.7886 44.3727 55.2596 44.5952C57.6827 45.7403 61.25 47.6139 61.25 53.5125C61.25 56.4669 58.772 61.25 52.5337 61.25C44.1538 61.25 41.9327 56.2189 41.5625 55.3168Z" fill="#3E3E3E"/>
<path d="M19.6875 55.9093L24.3877 52.9268C24.756 54.0366 26.1871 56.0827 28.2637 56.0827C30.3402 56.0827 31.403 53.9499 31.403 52.9268V32.8125H37.1836V52.9268C37.2771 55.7012 35.7384 61.25 28.9476 61.25C22.7041 61.25 20.1084 57.5393 19.6875 55.9093Z" fill="#3E3E3E"/>
</svg>
