<svg width="33" height="70" viewBox="0 0 33 70" fill="none" xmlns="http://www.w3.org/2000/svg">
<path d="M22.6342 7.80198C19.6634 4.31628 17.1052 0.776114 16.61 0.0408481C16.555 -0.013616 16.4725 -0.013616 16.4175 0.0408481C15.8948 0.776114 13.3366 4.31628 10.3658 7.80198C-15.106 39.963 14.3819 61.667 14.3819 61.667L14.6295 61.8304C14.8496 65.1799 15.3997 70 15.3997 70H17.6003C17.6003 70 18.1504 65.2072 18.3705 61.8304L18.6181 61.6398C18.6181 61.667 48.106 39.963 22.6342 7.80198ZM16.5 61.1768C16.5 61.1768 15.1796 60.0603 14.822 59.4884V59.434L16.4175 24.4135C16.4175 24.3046 16.5825 24.3046 16.5825 24.4135L18.1504 59.434V59.4884C17.7928 60.0603 16.5 61.1768 16.5 61.1768Z" fill="#00684A"/>
</svg>
