<svg width="84" height="51" viewBox="0 0 84 51" fill="none" xmlns="http://www.w3.org/2000/svg">
<path d="M19.8202 13.3013H35.6635V14.5687H21.2729V24.1066H34.8052V25.3741H21.2729V35.8458H35.8285V37.1132H19.8202V13.3013ZM37.0826 13.3013H38.7662L46.2257 23.7731L53.8502 13.3013L64.2207 0L47.183 24.8737L55.9627 37.1132H54.2131L46.2257 25.9744L38.2054 37.1132H36.4888L45.3345 24.8737L37.0826 13.3013ZM56.59 14.5687V13.3013H74.6442V14.5687H66.3269V37.1127H64.8743V14.5687H56.59ZM0 13.3013H1.81554L26.848 51L16.5031 37.1132L1.51807 15.1022L1.45209 37.1132H0V13.3013ZM74.4986 35.4631C74.2011 35.4631 73.9787 35.2318 73.9787 34.9331C73.9787 34.6338 74.2011 34.4025 74.498 34.4025C74.7983 34.4025 75.0173 34.6338 75.0173 34.9331C75.0173 35.2318 74.7989 35.4631 74.4986 35.4631ZM75.925 34.0678H76.7026C76.7134 34.4916 77.0211 34.776 77.4727 34.776C77.9778 34.776 78.2639 34.4705 78.2639 33.897V30.2667H79.055V33.9004C79.055 34.9331 78.4618 35.5277 77.4795 35.5277C76.5581 35.5277 75.925 34.9508 75.925 34.0678ZM80.0896 34.0221H80.874C80.9411 34.5093 81.4143 34.8189 82.0963 34.8189C82.7316 34.8189 83.198 34.4876 83.198 34.0324C83.198 33.6411 82.9017 33.4058 82.2265 33.2459L81.5696 33.0859C80.6482 32.8689 80.2273 32.42 80.2273 31.6655C80.2273 30.7504 80.969 30.1416 82.0815 30.1416C83.1167 30.1416 83.8732 30.7504 83.9187 31.6152H83.1485C83.0746 31.1423 82.6651 30.8464 82.0713 30.8464C81.4456 30.8464 81.0293 31.1491 81.0293 31.6118C81.0293 31.9785 81.2977 32.1886 81.9621 32.3451L82.5234 32.4839C83.5689 32.7295 84 33.1568 84 33.929C84 34.9114 83.2435 35.5277 82.036 35.5277C80.9058 35.5277 80.146 34.9405 80.0896 34.0221Z" fill="black"/>
</svg>
