<svg width="62" height="62" viewBox="0 0 62 62" fill="none" xmlns="http://www.w3.org/2000/svg">
<path d="M33.7959 0.661453C32.1033 -0.22247 29.8967 -0.218496 28.2026 0.661453C19.7181 5.0093 11.2335 9.35848 2.74745 13.7043C1.09619 14.511 -0.017554 16.1576 0.000209438 17.8667V44.1369C-0.0117139 45.8793 1.15945 47.5418 2.8533 48.3374C5.29078 49.5415 7.65891 50.868 10.1404 51.9919C13.0069 53.2998 16.5932 53.5891 19.4947 52.2251C21.8499 51.0945 22.896 48.5803 22.8931 46.2697C22.9121 37.5999 22.896 28.9298 22.9004 20.2599C22.9564 19.8746 22.6449 19.4628 22.1923 19.472C21.108 19.4561 20.0222 19.4628 18.9379 19.4694C18.5282 19.4334 18.1284 19.7494 18.1593 20.1318C18.1447 28.7458 18.1622 37.3625 18.1505 45.9778C18.1741 47.1695 17.3071 48.3149 16.0702 48.7175C13.2136 49.6472 5.0601 44.7313 5.0601 44.7313C4.76088 44.6026 4.57087 44.3013 4.6002 44.0019C4.6002 35.3347 4.60166 26.6673 4.6002 18.0014C4.55908 17.6521 4.79097 17.3374 5.13651 17.1948C13.5931 12.8725 22.0453 8.53948 30.5019 4.21459C30.7955 4.03256 31.2051 4.0331 31.4981 4.21591C39.9547 8.53948 48.4084 12.8686 56.8664 17.191C57.2132 17.3334 57.4351 17.6534 57.3998 18.0014C57.3984 26.6673 57.4028 35.3347 57.3969 44.0006C57.422 44.3073 57.2514 44.6046 56.9429 44.7393C48.5652 49.038 40.0922 53.1982 31.7904 57.6218C31.4282 57.8148 31.018 58.0334 30.6121 57.8208C28.4289 56.6995 26.2723 55.5345 24.0964 54.4023C23.8599 54.2652 23.5586 54.2065 23.3119 54.3597C22.3361 54.8371 21.4187 55.2238 20.2984 55.6356C18.7249 56.214 18.9764 56.4506 20.3953 57.2182C22.9401 58.5554 25.489 59.8874 28.0335 61.226C29.7086 62.1967 31.9595 62.2658 33.6886 61.3686C42.1746 57.0263 50.6578 52.6787 59.1453 48.3363C60.8347 47.5363 62.0117 45.8804 61.9998 44.1366V17.8667C62.0161 16.1923 60.945 14.575 59.3436 13.7565C50.8296 9.3874 42.3114 5.02785 33.7959 0.661453Z" fill="#8CC84B"/>
<path d="M46.5998 20.3853C43.2693 18.7307 39.307 18.6426 35.6059 18.8588C32.9321 19.1041 30.1199 19.7893 28.1718 21.569C26.1737 23.3583 25.7389 26.2474 26.6879 28.5832C27.368 30.2335 29.0799 31.3069 30.8502 31.8746C33.1307 32.6221 35.5257 32.8533 37.9216 33.0845C40.1069 33.2954 42.2929 33.5063 44.3932 34.1093C45.2512 34.3733 46.2504 34.7772 46.5132 35.6439C46.7558 36.6705 46.4898 37.8637 45.5922 38.577C42.741 40.6725 34.8104 40.3514 31.9933 38.7022C30.8545 37.9995 30.3637 36.7557 30.1642 35.5706C30.142 35.2012 29.8218 34.8625 29.3899 34.8905C28.3085 34.8786 27.2271 34.8812 26.1458 34.8892C25.7683 34.8598 25.3761 35.1091 25.3554 35.4666C25.1332 40.8953 30.5025 43.2619 35.54 43.7831C38.4181 44.0377 41.3593 44.0231 44.1935 43.4497C46.3239 42.9992 48.4599 42.1698 49.9265 40.646C51.7349 38.7943 52.0904 36.0372 51.2794 33.7306C50.6594 32.0095 48.8874 30.9055 47.076 30.3375C44.6128 29.5532 41.6935 29.1317 39.4625 28.9344C36.2196 28.6475 32.3661 28.7647 31.4483 26.786C31.0823 25.7499 31.3938 24.4635 32.4192 23.8262C35.1322 22.1174 40.6535 22.3443 43.4632 23.6208C44.7534 24.2208 45.5009 25.4527 45.8095 26.6965C45.8666 27.062 46.1314 27.4431 46.5869 27.4272C47.6607 27.4471 48.7348 27.4325 49.8087 27.4338C50.1776 27.4579 50.5815 27.2645 50.6535 26.9138C50.608 24.3142 49.1784 21.6532 46.5998 20.3853Z" fill="#8CC84B"/>
</svg>
