<svg width="64" height="66" viewBox="0 0 64 66" fill="none" xmlns="http://www.w3.org/2000/svg">
<path d="M63.8306 39.5354C63.446 38.3702 62.4384 37.5585 61.1351 37.3636C60.5207 37.2719 59.8169 37.311 58.9843 37.4828C57.5329 37.7823 56.4561 37.8963 55.6702 37.9185C58.6364 32.9089 61.0485 27.1961 62.437 21.8185C64.6823 13.1233 63.4825 9.16211 62.0804 7.37023C58.3699 2.62783 52.9562 0.0799818 46.4248 0.0018805C42.9409 -0.0406528 39.8822 0.647439 38.2868 1.14213C36.8012 0.880113 35.2037 0.733691 33.5275 0.706571C30.3861 0.656479 27.6101 1.34146 25.2382 2.74936C23.9248 2.30535 21.8175 1.67921 19.3836 1.27951C13.6593 0.33948 9.04584 1.07203 5.67132 3.45657C1.58503 6.3438 -0.309354 11.3601 0.0410471 18.3662C0.152168 20.5907 1.39628 27.3585 3.35497 33.7772C4.4807 37.4663 5.6811 40.5301 6.92283 42.8838C8.68373 46.2214 10.5679 48.187 12.6832 48.8927C13.8689 49.288 16.023 49.5645 18.2889 47.6773C18.576 48.025 18.959 48.3707 19.4676 48.6917C20.1133 49.0991 20.903 49.432 21.6915 49.6293C24.5337 50.34 27.1959 50.1622 29.467 49.1661C29.481 49.5701 29.4918 49.9562 29.501 50.2895C29.5161 50.8303 29.5309 51.3604 29.5507 51.8561C29.6853 55.2087 29.9133 57.8154 30.5889 59.6391C30.6259 59.7396 30.6759 59.8924 30.7286 60.0544C31.0655 61.0867 31.6293 62.8147 33.063 64.1682C34.5481 65.5701 36.3441 66.0001 37.989 66C38.8139 66 39.6011 65.8918 40.2914 65.7438C42.7525 65.2163 45.5474 64.4125 47.5692 61.533C49.4806 58.8107 50.4099 54.7106 50.5781 48.25C50.5998 48.0674 50.62 47.8929 50.6394 47.7267C50.6524 47.6145 50.6658 47.4998 50.6793 47.3854L51.1297 47.4249L51.2457 47.4328C53.7523 47.547 56.8171 47.0153 58.6994 46.1408C60.1868 45.4503 64.9528 42.9336 63.8306 39.5354Z" fill="black"/>
<path d="M59.5448 40.1964C52.092 41.7341 51.5796 39.2101 51.5796 39.2101C59.4486 27.5308 62.7381 12.7056 59.8993 9.07721C52.1549 -0.820317 38.749 3.86057 38.5253 3.9821L38.4533 3.99499C36.9809 3.68926 35.333 3.50712 33.481 3.47689C30.1087 3.42161 27.5507 4.36119 25.6096 5.83356C25.6096 5.83356 1.69481 -4.02099 2.80705 18.2275C3.04367 22.9607 9.58927 54.041 17.3966 44.6533C20.2502 41.2206 23.0073 38.3181 23.0073 38.3181C24.3768 39.228 26.0162 39.6922 27.7349 39.5255L27.8684 39.4121C27.8269 39.8383 27.8458 40.2552 27.9218 40.7487C25.9106 42.9964 26.5016 43.3911 22.4809 44.2189C18.4126 45.0576 20.8026 46.5507 22.363 46.9409C24.2547 47.4141 28.6312 48.0844 31.5884 43.9437L31.4704 44.4162C32.2585 45.0475 32.8119 48.523 32.7192 51.6734C32.6264 54.824 32.5645 56.9869 33.1854 58.6764C33.8064 60.3659 34.4252 64.1672 39.7107 63.0344C44.1273 62.0877 46.4159 59.6344 46.7343 55.5421C46.9602 52.6328 47.4716 53.0629 47.5039 50.4619L47.914 49.2305C48.3869 45.2867 47.9891 44.0144 50.7101 44.6062L51.3713 44.6643C53.374 44.7554 55.9951 44.3421 57.5335 43.6269C60.8461 42.0892 62.811 39.5217 59.5448 40.1964Z" fill="#336791"/>
<path d="M27.0095 20.3442C26.338 20.2507 25.7297 20.3373 25.422 20.5702C25.2488 20.7014 25.1953 20.8533 25.1809 20.9579C25.1422 21.2349 25.3363 21.5411 25.4554 21.6991C25.7927 22.1462 26.2854 22.4536 26.7732 22.5213C26.8439 22.5311 26.9141 22.5358 26.984 22.5358C27.7974 22.5358 28.5367 21.9024 28.6019 21.4348C28.6834 20.8493 27.8336 20.4589 27.0095 20.3442Z" fill="white"/>
<path d="M49.2588 20.3628C49.1948 19.9038 48.378 19.7729 47.6031 19.8807C46.8294 19.9886 46.079 20.3379 46.1417 20.7979C46.192 21.1556 46.8376 21.7664 47.6021 21.7662C47.6665 21.7662 47.7317 21.7619 47.7974 21.7527C48.3076 21.682 48.682 21.3579 48.8598 21.171C49.1308 20.8865 49.2874 20.5691 49.2588 20.3628Z" fill="white"/>
<path d="M62.0248 40.0216C61.7407 39.1621 60.8261 38.8854 59.3064 39.1994C54.7943 40.1308 53.1784 39.4856 52.6477 39.0948C56.155 33.7504 59.0401 27.2905 60.5966 21.2631C61.334 18.408 61.7413 15.7566 61.7745 13.5955C61.8112 11.2231 61.4075 9.48015 60.5743 8.41533C57.2157 4.12258 52.2865 1.82 46.3196 1.75672C42.2176 1.71063 38.7518 2.76077 38.0799 3.05598C36.665 2.70401 35.1225 2.48793 33.4434 2.46037C30.3638 2.41057 27.7021 3.14802 25.4982 4.65106C24.541 4.29479 22.067 3.4453 19.0417 2.95787C13.811 2.11536 9.65463 2.75366 6.68844 4.85557C3.14917 7.36371 1.51525 11.847 1.83187 18.1808C1.9384 20.3119 3.15213 26.8672 5.06786 33.1453C7.58941 41.4082 10.3302 46.0859 13.2143 47.0481C13.5519 47.1607 13.9412 47.2395 14.3703 47.2395C15.4224 47.2395 16.7121 46.7651 18.0542 45.1514C20.2833 42.469 22.3645 40.2212 23.1317 39.4045C24.2654 40.0133 25.5107 40.3531 26.7847 40.3872C26.7869 40.4206 26.7904 40.4539 26.7933 40.4871C26.5377 40.7903 26.3281 41.056 26.1494 41.2829C25.2668 42.4036 25.0831 42.6369 22.242 43.2221C21.4339 43.3889 19.2872 43.8314 19.2559 45.3364C19.2217 46.9806 21.793 47.6712 22.0861 47.7445C23.1071 48.0001 24.0906 48.1262 25.0286 48.1262C27.31 48.1261 29.3174 47.3762 30.9218 45.9251C30.8723 51.7872 31.1168 57.5636 31.8204 59.3236C32.3966 60.7642 33.8046 64.2855 38.2519 64.2852C38.9043 64.2852 39.6227 64.2093 40.4129 64.0399C45.0542 63.0445 47.0696 60.9926 47.8494 56.469C48.2666 54.0514 48.9827 48.2781 49.3193 45.1815C50.03 45.4032 50.9451 45.5047 51.9342 45.5046C53.9972 45.5046 56.3775 45.0662 57.8704 44.3731C59.5473 43.5941 62.5736 41.6823 62.0248 40.0216ZM50.9719 19.0958C50.9565 20.01 50.8307 20.84 50.6973 21.7063C50.5539 22.6381 50.4055 23.6014 50.3681 24.7708C50.3312 25.9088 50.4733 27.0921 50.6108 28.2362C50.8885 30.5472 51.1734 32.9265 50.0703 35.2743C49.8989 34.9698 49.7334 34.6375 49.5817 34.2695C49.4446 33.9371 49.147 33.4032 48.7349 32.6641C47.1312 29.7875 43.376 23.0513 45.2983 20.3024C45.8708 19.4841 47.324 18.643 50.9719 19.0958ZM46.5503 3.60803C51.8966 3.72614 56.1255 5.72669 59.1198 9.5538C61.4163 12.4893 58.8875 25.8466 51.5667 37.3699C51.4944 37.278 51.4208 37.1852 51.3446 37.0901C51.3143 37.052 51.2833 37.0133 51.252 36.9742C53.1438 33.8491 52.7738 30.7572 52.4446 28.0158C52.3093 26.8908 52.1816 25.8282 52.2141 24.8302C52.2477 23.7721 52.3876 22.865 52.5227 21.9876C52.6891 20.9064 52.8581 19.7877 52.8114 18.4689C52.8463 18.3306 52.8603 18.1672 52.8421 17.9732C52.723 16.7084 51.2796 12.9239 48.3374 9.49793C46.7282 7.62439 44.3812 5.52751 41.1768 4.11324C42.5551 3.82751 44.44 3.56105 46.5503 3.60803ZM16.6341 43.9702C15.1556 45.7483 14.1344 45.4076 13.7987 45.2957C11.6108 44.5657 9.07236 39.9405 6.83423 32.606C4.89762 26.2596 3.76582 19.878 3.67633 18.0885C3.39349 12.429 4.76502 8.48469 7.75298 6.36514C12.6156 2.91579 20.6104 4.98036 23.8228 6.02754C23.7766 6.07303 23.7286 6.11572 23.6828 6.16195C18.4114 11.4872 18.5364 20.5855 18.5493 21.1415C18.5489 21.3561 18.5668 21.66 18.5916 22.0779C18.6822 23.608 18.851 26.4561 18.4001 29.6816C17.981 32.6788 18.9046 35.6124 20.9338 37.7301C21.1439 37.9493 21.3632 38.1552 21.5897 38.3489C20.6864 39.3165 18.7234 41.456 16.6341 43.9702ZM22.2673 36.4519C20.6317 34.7451 19.889 32.3708 20.2292 29.9374C20.7054 26.5301 20.5295 23.5627 20.4351 21.9685C20.4219 21.7455 20.4102 21.55 20.4033 21.3957C21.1734 20.7128 24.7422 18.8 27.2871 19.3833C28.4487 19.6495 29.1562 20.4404 29.4504 21.8012C30.9732 28.8456 29.6521 31.7817 28.5905 34.141C28.3717 34.6271 28.165 35.0866 27.9884 35.562L27.8516 35.9294C27.5052 36.8584 27.183 37.7221 26.9833 38.5424C25.2447 38.5371 23.5533 37.7943 22.2673 36.4519ZM22.5341 45.9523C22.0265 45.8254 21.5699 45.605 21.302 45.4223C21.5257 45.3169 21.924 45.1738 22.6146 45.0315C25.9569 44.3431 26.473 43.8575 27.6002 42.4259C27.8587 42.0977 28.1517 41.7256 28.5573 41.2724C28.5572 41.2726 28.5575 41.2721 28.5573 41.2724C29.1617 40.5957 29.4384 40.7099 29.9397 40.9178C30.3459 41.086 30.7415 41.5952 30.902 42.1557C30.9778 42.4204 31.0632 42.9229 30.7842 43.3137C28.4295 46.6115 24.9983 46.5691 22.5341 45.9523ZM40.0257 62.2336C35.9369 63.11 34.4892 61.0232 33.5352 58.6376C32.9195 57.0973 32.6169 50.1523 32.8316 42.4828C32.8344 42.3807 32.8199 42.2821 32.7918 42.1895C32.7673 42.0106 32.7297 41.8296 32.6775 41.6475C32.3581 40.5316 31.5801 39.5981 30.6467 39.2111C30.2758 39.0574 29.595 38.7754 28.777 38.9847C28.9516 38.2657 29.2541 37.4541 29.582 36.5749L29.7196 36.205C29.8746 35.7881 30.0689 35.3563 30.2745 34.8992C31.3854 32.4305 32.9069 29.0493 31.2556 21.4107C30.6371 18.5497 28.5717 17.1526 25.4406 17.477C23.5634 17.6713 21.8462 18.4289 20.9897 18.8633C20.8055 18.9566 20.6371 19.0467 20.4797 19.1346C20.7187 16.2518 21.622 10.8646 25.0007 7.45618C27.1279 5.31025 29.961 4.25047 33.4129 4.30753C40.2142 4.41898 44.5756 7.91027 47.037 10.8196C49.1579 13.3267 50.3065 15.852 50.7649 17.214C47.3179 16.8635 44.9736 17.5441 43.785 19.2436C41.1996 22.9403 45.1995 30.1155 47.1219 33.5638C47.4744 34.1959 47.7787 34.742 47.8744 34.9741C48.5004 36.4916 49.3108 37.5047 49.9026 38.2444C50.0839 38.471 50.26 38.6908 50.3938 38.8827C49.3498 39.1838 47.4745 39.8793 47.6454 43.3563C47.5076 45.101 46.5273 53.2692 46.0295 56.1551C45.3723 59.9677 43.9696 61.3879 40.0257 62.2336ZM57.0927 42.6975C56.0252 43.1932 54.2387 43.5651 52.5415 43.6448C50.667 43.7327 49.7128 43.4348 49.4883 43.2516C49.3828 41.0849 50.1893 40.8585 51.0425 40.6189C51.1766 40.5811 51.3075 40.5445 51.4337 40.5003C51.5122 40.5642 51.5981 40.6276 51.6922 40.6897C53.1989 41.6844 55.8862 41.7917 59.6799 41.0085C59.6938 41.0055 59.7078 41.0028 59.7215 41C59.2099 41.4786 58.3343 42.1209 57.0927 42.6975Z" fill="white"/>
</svg>
