<svg width="55" height="66" viewBox="0 0 55 66" fill="none" xmlns="http://www.w3.org/2000/svg">
<path d="M54.6377 50.2826L31.7972 2.08196C31.2191 0.873464 30.0207 0.0772396 28.6759 0.00808649C27.3281 -0.0816562 26.0418 0.580955 25.3388 1.72724L0.565743 41.5994C-0.203323 42.8285 -0.187142 44.3888 0.60725 45.6019L12.719 64.2404C13.66 65.6773 15.4402 66.3278 17.0938 65.8391L52.2419 55.5077C53.3127 55.1966 54.1951 54.4395 54.6609 53.4322C55.1205 52.4297 55.1126 51.2771 54.6394 50.2809L54.6377 50.2826ZM49.524 52.3499L19.6988 61.1139C18.789 61.3828 17.9157 60.5992 18.1049 59.6868L28.7606 8.98497C28.9598 8.0363 30.2781 7.88616 30.6948 8.76389L50.4206 50.3898C50.5971 50.7652 50.5992 51.1986 50.4264 51.5757C50.2536 51.9528 49.9232 52.2357 49.5224 52.3499H49.524Z" fill="black"/>
</svg>
