<svg width="65" height="65" viewBox="0 0 65 65" fill="none" xmlns="http://www.w3.org/2000/svg">
<path d="M44.2545 43.7857C46.5032 43.5569 48.2093 41.651 48.1317 39.3637C48.0543 37.0766 46.1155 35.2468 43.7891 35.2468H43.6342C41.23 35.3231 39.369 37.3052 39.4466 39.6686C39.5242 40.8123 39.9894 41.8034 40.6873 42.4895C38.0508 47.5977 34.0184 51.3334 27.9699 54.4592C23.86 56.5939 19.5951 57.3564 15.3301 56.8228C11.8405 56.3653 9.12642 54.8406 7.42017 52.3245C4.93887 48.5888 4.70631 44.5479 6.80008 40.5073C8.27353 37.6102 10.5996 35.4754 12.0731 34.4081C11.7629 33.417 11.2976 31.7398 11.065 30.52C-0.179165 38.5252 0.984122 49.3512 4.39615 54.4592C6.95504 58.2714 12.1507 60.6348 17.889 60.6348C19.4399 60.6348 20.9907 60.4822 22.5417 60.1012C32.4676 58.1951 39.9896 52.4007 44.2545 43.7857V43.7857ZM57.9026 34.332C52.009 27.5466 43.324 23.8109 33.3981 23.8109H32.1575C31.4595 22.4386 29.9861 21.5236 28.3577 21.5236H28.2025C25.7988 21.5999 23.9378 23.582 24.0152 25.9456C24.0928 28.2327 26.0313 30.0625 28.3577 30.0625H28.5126C30.2186 29.9862 31.6921 28.9189 32.3124 27.4703H33.7083C39.6018 27.4703 45.185 29.1475 50.2257 32.4259C54.1028 34.9419 56.8945 38.2203 58.4453 42.1846C59.7636 45.3867 59.686 48.5125 58.2901 51.181C56.119 55.2216 52.4744 57.4327 47.6665 57.4327C44.5647 57.4327 41.618 56.5176 40.067 55.8315C39.2141 56.5939 37.663 57.8136 36.5773 58.5763C39.912 60.101 43.324 60.9397 46.5808 60.9397C54.0252 60.9397 59.531 56.8989 61.6248 52.8583C63.8735 48.4362 63.7183 40.8123 57.9026 34.332V34.332ZM18.5094 45.0815C18.587 47.3688 20.5255 49.1984 22.8519 49.1984H23.0071C25.411 49.1224 27.272 47.14 27.1944 44.7766C27.117 42.4893 25.1782 40.6597 22.8519 40.6597H22.6969C22.5417 40.6597 22.3089 40.6597 22.1542 40.7357C18.9747 35.5515 17.6565 29.9099 18.1218 23.8107C18.4318 19.2363 19.9828 15.2717 22.6969 11.9933C24.9457 9.17243 29.2882 7.80014 32.2351 7.72408C40.4547 7.5715 43.9441 17.6351 44.1769 21.6759C45.185 21.9046 46.891 22.4384 48.0543 22.8196C47.1236 10.4689 39.369 4.0647 31.9249 4.0647C24.9457 4.0647 18.5094 9.02032 15.9502 16.3393C12.3832 26.098 14.7096 35.4754 19.0521 42.8707C18.6646 43.4043 18.4318 44.243 18.5094 45.0817V45.0815Z" fill="#764ABC"/>
</svg>
