<svg width="70" height="42" viewBox="0 0 70 42" fill="none" xmlns="http://www.w3.org/2000/svg">
<path d="M35 0C25.6667 0 19.8333 4.66667 17.5 14C21 9.33333 25.0833 7.58333 29.75 8.75C32.4126 9.41565 34.3157 11.3473 36.4222 13.4855C39.8537 16.9686 43.8253 21 52.5 21C61.8333 21 67.6667 16.3333 70 7C66.5 11.6667 62.4167 13.4167 57.75 12.25C55.0874 11.5844 53.1843 9.65274 51.0778 7.5145C47.6463 4.03135 43.6747 0 35 0ZM17.5 21C8.16667 21 2.33333 25.6667 0 35C3.5 30.3333 7.58333 28.5833 12.25 29.75C14.9126 30.4156 16.8157 32.3473 18.9222 34.4855C22.3537 37.9686 26.3253 42 35 42C44.3333 42 50.1667 37.3333 52.5 28C49 32.6667 44.9167 34.4167 40.25 33.25C37.5874 32.5844 35.6843 30.6527 33.5778 28.5145C30.1463 25.0314 26.1747 21 17.5 21Z" fill="url(#paint0_linear_8_3432)"/>
<defs>
<linearGradient id="paint0_linear_8_3432" x1="-1.94445" y1="13.44" x2="58.512" y2="48.2978" gradientUnits="userSpaceOnUse">
<stop stop-color="#2298BD"/>
<stop offset="1" stop-color="#0ED7B5"/>
</linearGradient>
</defs>
</svg>
