<svg width="66" height="66" viewBox="0 0 66 66" fill="none" xmlns="http://www.w3.org/2000/svg">
<path d="M65.7816 9.76854L34.7781 65.1385C34.138 66.2817 32.4934 66.2885 31.8437 65.1508L0.22544 9.77387C-0.482397 8.53415 0.579035 7.0325 1.98565 7.28361L33.0223 12.8243C33.2203 12.8596 33.423 12.8593 33.621 12.8232L64.0087 7.29155C65.4106 7.03636 66.477 8.52638 65.7816 9.76854Z" fill="url(#paint0_linear_19_356)"/>
<path d="M47.8068 0.0162485L24.8633 4.50629C24.4862 4.58009 24.207 4.89926 24.1842 5.2823L22.7729 29.0888C22.7397 29.6496 23.2553 30.0848 23.8032 29.9586L30.191 28.4862C30.7887 28.3485 31.3288 28.8743 31.2059 29.4746L29.3081 38.7561C29.1804 39.3808 29.7676 39.9149 30.3784 39.7297L34.3238 38.5325C34.9355 38.347 35.5232 38.8827 35.3938 39.5079L32.3778 54.0871C32.1891 54.9991 33.4037 55.4963 33.9102 54.7145L34.2485 54.1923L52.9442 16.9287C53.2572 16.3048 52.7174 15.5934 52.0312 15.7256L45.4561 16.993C44.8382 17.112 44.3125 16.5373 44.4869 15.9335L48.7784 1.0752C48.9529 0.470413 48.4254 -0.104787 47.8068 0.0162485Z" fill="url(#paint1_linear_19_356)"/>
<defs>
<linearGradient id="paint0_linear_19_356" x1="-0.546544" y1="-2.19206" x2="43.9817" y2="51.7004" gradientUnits="userSpaceOnUse">
<stop stop-color="#41D1FF"/>
<stop offset="1" stop-color="#BD34FE"/>
</linearGradient>
<linearGradient id="paint1_linear_19_356" x1="31.241" y1="1.23529" x2="38.2039" y2="49.0602" gradientUnits="userSpaceOnUse">
<stop stop-color="#FFEA83"/>
<stop offset="0.0833333" stop-color="#FFDD35"/>
<stop offset="1" stop-color="#FFA800"/>
</linearGradient>
</defs>
</svg>
