<svg width="66" height="66" viewBox="0 0 66 66" fill="none" xmlns="http://www.w3.org/2000/svg">
<path d="M66 33C66 51.2254 51.2254 66 33 66C14.7746 66 0 51.2254 0 33C0 14.7746 14.7746 0 33 0C51.2254 0 66 14.7746 66 33Z" fill="#028CB0"/>
<path d="M4.36615 33C4.36615 44.3469 10.9662 54.12 20.5108 58.7654L6.85385 21.3485C5.21394 25.014 4.36623 28.9844 4.36615 33ZM33 61.6339C36.3254 61.6339 39.5238 61.05 42.5192 60.0092L42.3162 59.6285L33.5077 35.5131L24.9277 60.4662C27.4662 61.2277 30.1823 61.6339 33 61.6339ZM36.9346 19.5715L47.2915 50.3631L50.16 40.8185C51.3785 36.8585 52.3177 34.0154 52.3177 31.5531C52.3177 27.9992 51.0485 25.5623 49.9823 23.6838C48.51 21.2977 47.1646 19.2923 47.1646 16.9569C47.1646 14.3169 49.1446 11.88 51.9877 11.88H52.3431C47.067 7.03639 40.1622 4.35422 33 4.36615C28.2577 4.36527 23.5895 5.5433 19.4155 7.79428C15.2414 10.0453 11.6924 13.2986 9.08769 17.2615L10.9154 17.3123C13.9108 17.3123 18.5308 16.9315 18.5308 16.9315C20.1046 16.8554 20.2823 19.1146 18.7338 19.2923C18.7338 19.2923 17.1854 19.4954 15.4338 19.5715L25.8923 50.5915L32.1623 31.8069L27.6946 19.5715C26.6939 19.5163 25.695 19.4317 24.6992 19.3177C23.1508 19.2162 23.3285 16.8554 24.8769 16.9315C24.8769 16.9315 29.5985 17.3123 32.4162 17.3123C35.4115 17.3123 40.0315 16.9315 40.0315 16.9315C41.58 16.8554 41.7831 19.1146 40.2346 19.2923C40.2346 19.2923 38.6862 19.47 36.9346 19.5715ZM47.3931 57.75C51.7248 55.2313 55.3198 51.62 57.8187 47.2768C60.3177 42.9337 61.6332 38.0108 61.6339 33C61.6339 28.0246 60.3646 23.3538 58.1308 19.2669C58.5844 23.7633 57.9037 28.3016 56.1508 32.4669L47.3931 57.75ZM33 66C24.2479 66 15.8542 62.5232 9.66548 56.3345C3.47678 50.1458 0 41.7521 0 33C0 24.2479 3.47678 15.8542 9.66548 9.66548C15.8542 3.47678 24.2479 0 33 0C41.7521 0 50.1458 3.47678 56.3345 9.66548C62.5232 15.8542 66 24.2479 66 33C66 41.7521 62.5232 50.1458 56.3345 56.3345C50.1458 62.5232 41.7521 66 33 66Z" fill="white"/>
</svg>
